<?xml version="1.0" encoding="UTF-8"?>
<svg id="Layer_2" data-name="Layer 2" xmlns="http://www.w3.org/2000/svg" viewBox="0 0 1000 679.54">
  <defs>
    <style>
      .cls-1 {
        fill: none;
      }

      .cls-1, .cls-2, .cls-3, .cls-4 {
        stroke-width: 0px;
      }

      .cls-2 {
        fill: #071d49;
      }

      .cls-3 {
        fill: #fff;
      }

      .cls-4 {
        fill: #009a17;
      }
    </style>
  </defs>
  <g id="Layer_1-2" data-name="Layer 1">
    <g>
      <rect class="cls-2" x="150.41" y="150.41" width="699.19" height="378.73"/>
      <g>
        <path class="cls-3" d="M256.41,493.78h-6.6v-33.79s11.95,0,11.84,0c8.54,0,13.09,4.06,13.09,10.27,0,4.81-2.7,8.17-7.3,9.73l8.87,13.79h-7.52l-7.52-12.38-4.87.33v12.06ZM261.28,476.42c4.06-.22,6.7-2.06,6.7-5.73s-2.65-5.19-7.35-5.19h-4.27v11.03l4.92-.11Z"/>
        <path class="cls-3" d="M308.73,493.78v-33.79h23.03v5.57h-16.55v8.49h13.57v5.57h-13.57v8.6h16.55v5.57h-23.03Z"/>
        <path class="cls-3" d="M382.14,484.53c0-2.81-2.54-3.84-7.52-5.19-4.87-1.35-10.49-3.51-10.49-10.17,0-6,4.6-10,12.11-10,4.6,0,8.38,1.14,11.62,2.97l-1.62,5.57c-2.97-1.78-6.76-2.92-9.95-2.92-3.95,0-5.68,1.68-5.68,4,0,2.76,3.03,3.84,7.68,5.08,5.08,1.41,10.33,3.73,10.33,10.17s-4.92,10.54-12.87,10.54c-4.49,0-8.98-1.19-12.17-3.14l1.51-5.68c3.14,1.89,6.7,3.24,10.76,3.24,3.68,0,6.27-1.78,6.27-4.49Z"/>
        <path class="cls-3" d="M437.6,494.59c-10,0-17.36-6.54-17.36-17.63,0-10.44,7.41-17.79,17.41-17.79s17.3,6.49,17.3,17.57c0,10.44-7.35,17.84-17.36,17.84ZM437.49,464.69c-6.43,0-10.6,4.87-10.6,12.06s4.22,12.33,10.81,12.33,10.65-4.92,10.65-12.11-4.27-12.27-10.87-12.27Z"/>
        <path class="cls-3" d="M502.47,494.59c-8.65,0-14.06-4.81-14.06-13.63v-20.98h6.6v20.11c0,5.57,2.43,8.71,7.68,8.71,4.7,0,7.35-2.6,7.35-8.44,0,.22,0-20.38,0-20.38h6.54v20.38c0,9.19-5.14,14.22-14.11,14.22Z"/>
        <path class="cls-3" d="M558.44,493.78h-6.6v-33.79s11.95,0,11.84,0c8.54,0,13.09,4.06,13.09,10.27,0,4.81-2.7,8.17-7.3,9.73l8.87,13.79h-7.52l-7.52-12.38-4.87.33v12.06ZM563.31,476.42c4.06-.22,6.7-2.06,6.7-5.73s-2.65-5.19-7.35-5.19h-4.27v11.03l4.92-.11Z"/>
        <path class="cls-3" d="M635.2,467.56c-2.7-1.78-5.62-2.7-8.87-2.7-6.6,0-10.98,4.54-10.98,11.89s4.27,12.17,11.09,12.17c3.46,0,6.76-1.3,9.25-3.03l1.24,6.06c-2.7,1.62-6.92,2.65-10.76,2.65-10.38,0-17.46-6.54-17.46-17.63s7.08-17.79,17.63-17.79c3.95,0,8,1.03,10.92,2.65l-2.06,5.73Z"/>
        <path class="cls-3" d="M670.29,493.78v-33.79h23.03v5.57h-16.55v8.49h13.57v5.57h-13.57v8.6h16.55v5.57h-23.03Z"/>
        <path class="cls-3" d="M743.7,484.53c0-2.81-2.54-3.84-7.52-5.19-4.87-1.35-10.49-3.51-10.49-10.17,0-6,4.6-10,12.11-10,4.6,0,8.38,1.14,11.63,2.97l-1.62,5.57c-2.97-1.78-6.76-2.92-9.95-2.92-3.95,0-5.68,1.68-5.68,4,0,2.76,3.03,3.84,7.68,5.08,5.08,1.41,10.33,3.73,10.33,10.17s-4.92,10.54-12.87,10.54c-4.49,0-8.98-1.19-12.17-3.14l1.51-5.68c3.14,1.89,6.7,3.24,10.76,3.24,3.68,0,6.27-1.78,6.27-4.49Z"/>
      </g>
      <path class="cls-4" d="M587.51,407.58c-69.24-4.36-138.66-3.13-207.82,2.15-25.15,2.01-51.37,4.33-76.43,7.04-21.05,2.27-44.52,4.82-65.46,7.34-29.11,3.3-58.21,6.84-87.4,9.56v6.34c96.55-9,217.46-21.86,349.59-21.86s253.22,12.86,349.59,21.86v-6.34c-87.37-8.65-174.39-21.3-262.08-26.09Z"/>
      <path class="cls-3" d="M745.59,416.43h26.18v-43.68h-82.55v-42.31h66.38v-43.34h-66.38v-41.96h82.55v-43.68h-134.49v200.82c36.21,3.74,72.31,8.64,108.31,14.15Z"/>
      <path class="cls-3" d="M500,394.68c10.39,0,20.77.15,31.14.43v-64.67h66.38v-43.34h-66.38v-41.96h82.55v-43.68h-134.49v193.42c6.93-.13,13.86-.2,20.8-.19Z"/>
      <path class="cls-3" d="M452.78,395.66v-194.2h-52.28v197.34c17.4-1.38,34.83-2.44,52.28-3.14Z"/>
      <path class="cls-3" d="M280.52,412.53v-65.58l14.1-1.72,29.11,61.48c18.28-2.28,36.58-4.31,54.91-6.02l-35.52-68.53c23.73-12.38,35.43-32.68,35.43-58.82,0-43-29.92-71.89-85.99-71.89h-64.32v214.98h26.08c8.73-1.34,17.46-2.64,26.2-3.9ZM279.49,245.14h9.63c23.05,0,35.08,10.66,35.08,30.27s-11.69,30.61-34.4,30.61l-10.32.34v-61.23Z"/>
      <rect class="cls-1" width="1000" height="679.54"/>
    </g>
  </g>
</svg>